<?xml version="1.0" standalone="yes"?><svg xmlns="http://www.w3.org/2000/svg" xmlns:xlink="http://www.w3.org/1999/xlink" style="zoom: 1;" viewBox="0 0 128 128" height="10%" width="10%"><defs><style>.cls-1{isolation:isolate;}.cls-2{mix-blend-mode:multiply;}.cls-3{fill:#878c99;}.cls-4{fill:#e4e7ed;}.cls-5{fill:#5a6070;}</style></defs><title>raccoon</title><g class="cls-1"><g id="icons" class="cls-2"><path class="cls-3" d="M70,62.77 C81,56.66 89.75,61.62 97.38,69.05 A12.07,12.07 0 0 1 97,65.82 C97,51.64 84.13,32 64,32 S31,51.64 31,65.82 a12.07,12.07 0 0 1 -.43,3.23 C38.25,61.62 47,56.66 58,62.77 A12.31,12.31 0 0 0 70,62.77 Z"></path><path class="cls-4" d="M64,77 c-3.58,0 -8.74,6.78 -9.8,12.16 a3.9,3.9 0 0 1 1.38,1.39 C57.52,93.86 60.57,96 64,96 s6.48,-2.14 8.41,-5.45 a3.9,3.9 0 0 1 1.38,-1.39 C72.74,83.78 67.58,77 64,77 Z"></path><path class="cls-5" d="M46.72,37.47 A37.67,37.67 0 0 0 34.34,52.32 c-1.57,-8.34 -8.77,-12.69 -5.5,-18.44 C32,28.34 40.18,31.49 46.72,37.47 Z"></path><path class="cls-5" d="M93.66,52.32 A37.67,37.67 0 0 0 81.28,37.47 c6.54,-6 14.73,-9.13 17.88,-3.59 C102.43,39.63 95.23,44 93.66,52.32 Z"></path><path d="M68,70 s4,-6 11,-6 c8.39,0 23.73,15.65 10.35,22.63 a59.85,59.85 0 0 0 14.82,-5 a2,2 0 0 0 .33,-2.95 c-2.6,-2.66 -5.95,-5.43 -7.12,-9.68 C89.74,61.61 81,56.65 69.94,62.8 a11.52,11.52 0 0 1 -5.6,1.38 h-.69 a11.52,11.52 0 0 1 -5.6,-1.38 C47,56.65 38.26,61.61 30.62,69.05 c-1.17,4.25 -4.51,7 -7.12,9.68 a2,2 0 0 0 .33,2.95 a59.85,59.85 0 0 0 14.82,5 C25.27,79.65 40.61,64 49,64 c7,0 11,6 11,6 Z" visibility="visible" class="cls-4"></path><path class="cls-5" d="M79,64 a13.5,13.5 0 0 0 -9.42,4.16 a1,1 0 0 1 -1.69,-.66 c0,-.92 -.11,-2.06 -.19,-3.33 C67.2,56.52 66.08,44 64,44 s-3.2,12.52 -3.69,20.18 c-.08,1.27 -.14,2.4 -.19,3.33 a1,1 0 0 1 -1.69,.66 A13.5,13.5 0 0 0 49,64 c-8.39,0 -23.73,15.65 -10.35,22.63 a107.1,107.1 0 0 0 13.84,2 a4,4 0 0 1 1.71,.55 C55.26,83.78 60.42,77 64,77 s8.74,6.78 9.8,12.16 a4,4 0 0 1 1.71,-.55 a107.1,107.1 0 0 0 13.84,-2 C102.73,79.65 87.39,64 79,64 Z"></path><circle cx="79" cy="75" r="4"></circle><circle cx="49" cy="75" r="4"></circle><path class="cls-3" d="M68,86 c0,1.1 -1,5 -4,5 s-4,-3.9 -4,-5 s1,-2 4,-2 S68,84.9 68,86 Z"></path></g></g></svg>