<svg id="Layer_1" data-name="Layer 1" xmlns="http://www.w3.org/2000/svg" viewBox="0 0 162 162"><defs><style>.cls-1{fill:#878c99;}.cls-2{fill:#e4e7ec;}.cls-3{fill:#5b6171;}.cls-4{fill:#010101;}.cls-5{fill:#fdd700;}</style></defs><title>Artboard 1</title><g id="icons"><path class="cls-1" d="M89.76,72.87c16-8.91,28.82-1.67,40,9.17a17.4,17.4,0,0,1-.55-4.71C129.17,56.63,110.38,28,81,28S32.83,56.63,32.83,77.33A17.46,17.46,0,0,1,32.21,82c11.2-10.84,24-18.08,40-9.17A18,18,0,0,0,89.76,72.87Z"/><path class="cls-2" d="M81,93.64c-5.23,0-12.76,9.9-14.3,17.75a5.83,5.83,0,0,1,2,2c2.83,4.83,7.28,8,12.29,8s9.46-3.13,12.28-8a5.75,5.75,0,0,1,2-2C93.76,103.54,86.23,93.64,81,93.64Z"/><path class="cls-3" d="M55.78,36A54.92,54.92,0,0,0,37.71,57.62c-2.29-12.17-12.8-18.52-8-26.91C34.29,22.62,46.23,27.22,55.78,36Z"/><path class="cls-3" d="M124.29,57.62A54.92,54.92,0,0,0,106.22,36c9.55-8.76,21.5-13.33,26.1-5.24C137.09,39.1,126.58,45.48,124.29,57.62Z"/><path class="cls-2" d="M86.84,83.43s5.84-8.76,16-8.76c12.25,0,34.64,22.84,15.11,33a87.43,87.43,0,0,0,21.63-7.3,2.91,2.91,0,0,0,.67-4.07,2.11,2.11,0,0,0-.19-.23c-3.79-3.89-8.68-7.93-10.39-14.13-11.15-10.79-23.91-18-40-9a16.87,16.87,0,0,1-8.17,2h-1a16.84,16.84,0,0,1-8.17-2c-16.13-9-28.89-1.74-40,9.12-1.71,6.2-6.58,10.22-10.39,14.13a2.91,2.91,0,0,0,.25,4.12,2.11,2.11,0,0,0,.23.19A87.41,87.41,0,0,0,44,107.77c-19.53-10.26,2.86-33.1,15.11-33.1,10.21,0,16,8.76,16,8.76Z"/><path class="cls-3" d="M102.89,74.67a19.74,19.74,0,0,0-13.75,6.07,1.45,1.45,0,0,1-2.46-1c0-1.34-.16-3-.28-4.86C85.67,63.75,84,45.48,81,45.48s-4.67,18.27-5.39,29.45c-.11,1.86-.2,3.51-.27,4.86a1.46,1.46,0,0,1-1.55,1.37,1.49,1.49,0,0,1-.92-.4,19.71,19.71,0,0,0-13.76-6.09c-12.25,0-34.64,22.84-15.11,33a156.26,156.26,0,0,0,20.2,2.92,5.84,5.84,0,0,1,2.5.8c1.54-7.88,9.07-17.78,14.3-17.78s12.76,9.9,14.3,17.75a6,6,0,0,1,2.5-.8,156.26,156.26,0,0,0,20.2-2.92C137.53,97.51,115.14,74.67,102.89,74.67Z"/><circle class="cls-4" cx="102.89" cy="90.73" r="5.84"/><circle class="cls-4" cx="59.11" cy="90.73" r="5.84"/><path class="cls-1" d="M86.84,106.78c0,1.61-1.46,7.3-5.84,7.3s-5.84-5.69-5.84-7.3,1.46-2.92,5.84-2.92S86.84,105.18,86.84,106.78Z"/></g><path id="Path1" class="cls-5" d="M102.2,110.7a20.91,20.91,0,0,1,3.4-1.7c.1,0,.9-.3,1.6-.5a7.19,7.19,0,0,1,1.8-.1h.2c.1,0,.1,0,.2.1a1,1,0,0,1,.4.1,3.78,3.78,0,0,1,1.2.9,6.14,6.14,0,0,1,1.4,1.7,14,14,0,0,1,1.9,3.8,34.43,34.43,0,0,1,2,7.8,43.92,43.92,0,0,1,.7,10.3,48.75,48.75,0,0,1-1.1,9.7,29.32,29.32,0,0,1-2,6.6,12.49,12.49,0,0,1-1.2,2.3,9.23,9.23,0,0,1-1.1,1.4,4.14,4.14,0,0,1-2.5,1.4c-1.7.2-4.5-.9-8-3.4a54.2,54.2,0,0,1-7.1-5.9s-2-1.9-2.7-2.8c-.1,0-.3-.3-.4-.5s0-.1.1-.3v-.1l.2-.8a29.31,29.31,0,0,0,.5-3.7,6.85,6.85,0,0,0,2,.6c.8.2,2.4.5,4.4.8l3.6.5h.3v-.1h-.1a1.47,1.47,0,0,0-.4-.2c-.6-.2-1.6-.5-3.2-1,0,0-2.8-.7-4.3-1.2-.7-.2-1.2-.4-2.4-.8a42.76,42.76,0,0,0-.7-5.1l.1-.1a1.24,1.24,0,0,1,.3-.2,13.7,13.7,0,0,1,1.4-.8c2.2-1.2,7.2-3.5,9-4.4v-.1a.9.9,0,0,1-.5.1l-.7.2c-2.4.6-6.5,2-6.9,2.2,0,0-1.3.4-2.7.8a.75.75,0,0,1-.5.1c0-.1-.1-.2-.2-.4s-.1-.4-.2-.8a12.63,12.63,0,0,0-.8-1.8l-.2-.6a1.49,1.49,0,0,1-.3-.7.1.1,0,0,1,.1-.1l.2-.6a7.35,7.35,0,0,0,.8-1.2,43.49,43.49,0,0,1,3.3-4A40.51,40.51,0,0,1,102.2,110.7Zm-41,15.6h0c.1.1.1.1.2.1l.3.1c.2.1,3.3,1,3.3,1,.4.2,5.8,1.8,8.2,2.8a6.37,6.37,0,0,0,.7.2l.4.2v.8a18.15,18.15,0,0,1-.1,2s-.1.5-.1.6a.76.76,0,0,1-.2.4c-.2.2-.4.4-.6.4l-.5.2a26,26,0,0,1-3.5,1,49.87,49.87,0,0,0-5,1.5h0c.6.1,5-.5,6.7-.7,0,0,1.7-.3,1.8-.3s.5-.1.6-.1h.2v.5a3.87,3.87,0,0,0-.3,1.1c-.2.9-.6,2-1.1,3.6a130.6,130.6,0,0,1-10.5,8.8,28.27,28.27,0,0,1-6.8,3.8,8.81,8.81,0,0,1-1.5.2,3,3,0,0,1-1.2-.3,5.05,5.05,0,0,1-1.3-.8,11.48,11.48,0,0,1-1.3-1.7,25.92,25.92,0,0,1-2.7-6.4,47.19,47.19,0,0,1-1.5-9.3,54.71,54.71,0,0,1,1.4-17.5,36.53,36.53,0,0,1,2.1-5.7,13.71,13.71,0,0,1,2.2-3.2,4.88,4.88,0,0,1,1.3-1,2.68,2.68,0,0,1,1.1-.2,9.82,9.82,0,0,1,4,1,29.46,29.46,0,0,1,7.3,4.5,43,43,0,0,1,6.3,6s1.1,1.3,1.9,2.4a4.75,4.75,0,0,1,1,1.9,2.53,2.53,0,0,1,.2,1.2,8.44,8.44,0,0,1,.2,1.9V129h0c-.2,0-.3-.1-.5-.1-.3-.2-.6-.3-.9-.5a9.25,9.25,0,0,1-1-.3,14.53,14.53,0,0,0-1.9-.6l-1-.3a6.37,6.37,0,0,1-.7-.2,1.88,1.88,0,0,1-.8-.2l-1.5-.2-2.3-.3s-1.1-.1-1.8-.1h-.5c-.1,0-.1,0-.3.1Zm15.1,15.5a5.44,5.44,0,0,1-.8-.4,6.53,6.53,0,0,0-.8-.7,29.51,29.51,0,0,0,1-5,45.36,45.36,0,0,0,.5-5.9v-2.4c0-.8-.1-1.8-.1-2.2v-.8a.1.1,0,0,0,.1-.1.1.1,0,0,0,.1-.1c.1,0,.1-.1.2-.1a.35.35,0,0,0,.2-.1,4.86,4.86,0,0,1,1.4-.4,12.18,12.18,0,0,1,2.7-.6,9.14,9.14,0,0,1,4.5.3,3.65,3.65,0,0,1,1,.7,14,14,0,0,1,1,1.6,26.57,26.57,0,0,1,1.8,6.8,26,26,0,0,1,.3,5.5,24.35,24.35,0,0,1-.3,3,5.13,5.13,0,0,1-.4,1,4.88,4.88,0,0,1-.7.3,3.1,3.1,0,0,1-.7.2,14.33,14.33,0,0,1-3,.6,30.15,30.15,0,0,1-4-.1,15,15,0,0,1-1.8-.3s-.8-.2-1.4-.4Z"/></svg>